<?xml version="1.0" standalone="no"?><!DOCTYPE svg PUBLIC "-//W3C//DTD SVG 1.1//EN" "http://www.w3.org/Graphics/SVG/1.1/DTD/svg11.dtd"><svg width="100%" height="100%" viewBox="0 0 24 24" version="1.1" xmlns="http://www.w3.org/2000/svg" xmlns:xlink="http://www.w3.org/1999/xlink" xml:space="preserve" style="fill-rule:evenodd;clip-rule:evenodd;stroke-linejoin:round;stroke-miterlimit:1.41421;"><g><path d="M9,3l-2,0c0,-1.7 1.3,-3 3,-3l0,2c-0.6,0 -1,0.4 -1,1Z" style="fill:#ededed;fill-rule:nonzero;"/><path d="M17,3l-2,0c0,-0.6 -0.4,-1 -1,-1l0,-2c1.7,0 3,1.3 3,3Z" style="fill:#ededed;fill-rule:nonzero;"/><path d="M17,6l-10,0l0,-3l2,0l0,1l6,0l0,-1l2,0l0,3Z" style="fill:#ededed;fill-rule:nonzero;"/><rect x="10" y="0" width="4" height="2" style="fill:#ededed;"/><path d="M21,6l-18,0c-0.6,0 -1,-0.4 -1,-1c0,-0.6 0.4,-1 1,-1l18,0c0.6,0 1,0.4 1,1c0,0.6 -0.4,1 -1,1Z" style="fill:#ededed;fill-rule:nonzero;"/><path d="M19,24l-14,0c-0.6,0 -1,-0.4 -1,-1l0,-14c0,-0.6 0.4,-1 1,-1l14,0c0.6,0 1,0.4 1,1l0,14c0,0.6 -0.4,1 -1,1ZM6,22l12,0l0,-12l-12,0l0,12Z" style="fill:#ededed;fill-rule:nonzero;"/><path d="M10,20c-0.6,0 -1,-0.4 -1,-1l0,-6c0,-0.6 0.4,-1 1,-1c0.6,0 1,0.4 1,1l0,6c0,0.6 -0.4,1 -1,1Z" style="fill:#ededed;fill-rule:nonzero;"/><path d="M14,20c-0.6,0 -1,-0.4 -1,-1l0,-6c0,-0.6 0.4,-1 1,-1c0.6,0 1,0.4 1,1l0,6c0,0.6 -0.4,1 -1,1Z" style="fill:#ededed;fill-rule:nonzero;"/></g></svg>