<?xml version="1.0" standalone="no"?><!DOCTYPE svg PUBLIC "-//W3C//DTD SVG 1.1//EN" "http://www.w3.org/Graphics/SVG/1.1/DTD/svg11.dtd"><svg width="100%" height="100%" viewBox="0 0 24 24" version="1.1" xmlns="http://www.w3.org/2000/svg" xmlns:xlink="http://www.w3.org/1999/xlink" xml:space="preserve" style="fill-rule:evenodd;clip-rule:evenodd;stroke-linejoin:round;stroke-miterlimit:1.41421;"><g><path d="M12,24c-6.6,0 -12,-5.4 -12,-12c0,-6.6 5.4,-12 12,-12c6.6,0 12,5.4 12,12c0,6.6 -5.4,12 -12,12ZM12,2c-5.5,0 -10,4.5 -10,10c0,5.5 4.5,10 10,10c5.5,0 10,-4.5 10,-10c0,-5.5 -4.5,-10 -10,-10Z" style="fill:#ededed;fill-rule:nonzero;"/><path d="M8,17c-0.3,0 -0.5,-0.1 -0.7,-0.3c-0.4,-0.4 -0.4,-1 0,-1.4l8,-8c0.4,-0.4 1,-0.4 1.4,0c0.4,0.4 0.4,1 0,1.4l-8,8c-0.2,0.2 -0.4,0.3 -0.7,0.3Z" style="fill:#ededed;fill-rule:nonzero;"/><path d="M16,17c-0.3,0 -0.5,-0.1 -0.7,-0.3l-8,-8c-0.4,-0.4 -0.4,-1 0,-1.4c0.4,-0.4 1,-0.4 1.4,0l8,8c0.4,0.4 0.4,1 0,1.4c-0.2,0.2 -0.4,0.3 -0.7,0.3Z" style="fill:#ededed;fill-rule:nonzero;"/></g></svg>