<?xml version="1.0" standalone="no"?><!DOCTYPE svg PUBLIC "-//W3C//DTD SVG 1.1//EN" "http://www.w3.org/Graphics/SVG/1.1/DTD/svg11.dtd"><svg width="100%" height="100%" viewBox="0 0 24 24" version="1.1" xmlns="http://www.w3.org/2000/svg" xmlns:xlink="http://www.w3.org/1999/xlink" xml:space="preserve" style="fill-rule:evenodd;clip-rule:evenodd;stroke-linejoin:round;stroke-miterlimit:1.41421;"><g><path d="M14,21c-0.1,0 -0.3,0 -0.4,-0.1c-0.4,-0.1 -0.6,-0.5 -0.6,-0.9l0,-5c0,-0.6 0.4,-1 1,-1c0.6,0 1,0.4 1,1l0,2.8l6.5,-5.8l-6.5,-5.8l0,2.8c0,0.6 -0.4,1 -1,1c-0.6,0 -1,-0.4 -1,-1l0,-5c0,-0.4 0.2,-0.8 0.6,-0.9c0.4,-0.2 0.8,-0.1 1.1,0.2l9,8c0.2,0.2 0.3,0.5 0.3,0.7c0,0.2 -0.1,0.6 -0.3,0.7l-9,8c-0.2,0.2 -0.5,0.3 -0.7,0.3Z" style="fill:#ededed;fill-rule:nonzero;"/><path d="M1,21c-0.1,0 -0.1,0 -0.2,0c-0.5,-0.1 -0.8,-0.5 -0.8,-1c0,-11.9 13.9,-12 14,-12c0.6,0 1,0.4 1,1c0,0.6 -0.4,1 -1,1c-0.4,0 -9.5,0.1 -11.6,6.9c2,-1.4 5.5,-2.9 11.6,-2.9c0.6,0 1,0.4 1,1c0,0.6 -0.4,1 -1,1c-10.1,0 -12.1,4.3 -12.1,4.4c-0.1,0.4 -0.5,0.6 -0.9,0.6Z" style="fill:#ededed;fill-rule:nonzero;"/></g></svg>